<svg width="64" height="64" viewBox="0 0 64 64" fill="none" xmlns="http://www.w3.org/2000/svg">
<path d="M54 24H20C18.3431 24 17 25.3431 17 27V49C17 50.6569 18.3431 52 20 52H54C55.6569 52 57 50.6569 57 49V27C57 25.3431 55.6569 24 54 24Z" fill="#BDEA09"/>
<path d="M49 18H15C13.3431 18 12 19.3431 12 21V43C12 44.6569 13.3431 46 15 46H49C50.6569 46 52 44.6569 52 43V21C52 19.3431 50.6569 18 49 18Z" fill="#00C5A1"/>
<path d="M44 12H10C8.34315 12 7 13.3431 7 15V37C7 38.6569 8.34315 40 10 40H44C45.6569 40 47 38.6569 47 37V15C47 13.3431 45.6569 12 44 12Z" fill="#3F7DFF"/>
<path d="M7.04004 14.6602L25.6997 30.6602C26.062 30.97 26.5233 31.1406 27 31.1406C27.4767 31.1406 27.9375 30.97 28.2998 30.6602L46.9697 14.6602" stroke="white" stroke-linecap="round" stroke-linejoin="round"/>
</svg>
